<?xml version="1.0" encoding="UTF-8" standalone="no"?>
<!DOCTYPE svg PUBLIC "-//W3C//DTD SVG 1.1//EN"
 "http://www.w3.org/Graphics/SVG/1.1/DTD/svg11.dtd">
<!-- Generated by graphviz version 2.43.0 (0)
 -->
<!-- Title: %3 Pages: 1 -->
<svg width="949pt" height="260pt"
 viewBox="0.00 0.00 948.50 260.00" xmlns="http://www.w3.org/2000/svg" xmlns:xlink="http://www.w3.org/1999/xlink">
<g id="graph0" class="graph" transform="scale(1 1) rotate(0) translate(4 256)">
<title>%3</title>
<polygon fill="white" stroke="transparent" points="-4,4 -4,-256 944.5,-256 944.5,4 -4,4"/>
<!-- sbx/eu&#45;west&#45;1/ecr -->
<g id="node1" class="node">
<title>sbx/eu&#45;west&#45;1/ecr</title>
<polygon fill="none" stroke="black" points="142,-252 0,-252 0,-216 142,-216 142,-252"/>
<text text-anchor="middle" x="71" y="-230.3" font-family="Times,serif" font-size="14.00">sbx/eu&#45;west&#45;1/ecr</text>
</g>
<!-- sbx/eu&#45;west&#45;1/infra&#45;01/cluster&#45;01/010_eks -->
<g id="node2" class="node">
<title>sbx/eu&#45;west&#45;1/infra&#45;01/cluster&#45;01/010_eks</title>
<polygon fill="none" stroke="black" points="698,-108 384,-108 384,-72 698,-72 698,-108"/>
<text text-anchor="middle" x="541" y="-86.3" font-family="Times,serif" font-size="14.00">sbx/eu&#45;west&#45;1/infra&#45;01/cluster&#45;01/010_eks</text>
</g>
<!-- sbx/eu&#45;west&#45;1/infra&#45;01/vpc -->
<g id="node3" class="node">
<title>sbx/eu&#45;west&#45;1/infra&#45;01/vpc</title>
<polygon fill="none" stroke="black" points="643.5,-36 438.5,-36 438.5,0 643.5,0 643.5,-36"/>
<text text-anchor="middle" x="541" y="-14.3" font-family="Times,serif" font-size="14.00">sbx/eu&#45;west&#45;1/infra&#45;01/vpc</text>
</g>
<!-- sbx/eu&#45;west&#45;1/infra&#45;01/cluster&#45;01/010_eks&#45;&gt;sbx/eu&#45;west&#45;1/infra&#45;01/vpc -->
<g id="edge1" class="edge">
<title>sbx/eu&#45;west&#45;1/infra&#45;01/cluster&#45;01/010_eks&#45;&gt;sbx/eu&#45;west&#45;1/infra&#45;01/vpc</title>
<path fill="none" stroke="black" d="M541,-71.83C541,-71.83 541,-46.41 541,-46.41"/>
<polygon fill="black" stroke="black" points="544.5,-46.41 541,-36.41 537.5,-46.41 544.5,-46.41"/>
</g>
<!-- sbx/eu&#45;west&#45;1/infra&#45;01/cluster&#45;01/020_system_charts -->
<g id="node4" class="node">
<title>sbx/eu&#45;west&#45;1/infra&#45;01/cluster&#45;01/020_system_charts</title>
<polygon fill="none" stroke="black" points="737.5,-180 344.5,-180 344.5,-144 737.5,-144 737.5,-180"/>
<text text-anchor="middle" x="541" y="-158.3" font-family="Times,serif" font-size="14.00">sbx/eu&#45;west&#45;1/infra&#45;01/cluster&#45;01/020_system_charts</text>
</g>
<!-- sbx/eu&#45;west&#45;1/infra&#45;01/cluster&#45;01/020_system_charts&#45;&gt;sbx/eu&#45;west&#45;1/infra&#45;01/cluster&#45;01/010_eks -->
<g id="edge2" class="edge">
<title>sbx/eu&#45;west&#45;1/infra&#45;01/cluster&#45;01/020_system_charts&#45;&gt;sbx/eu&#45;west&#45;1/infra&#45;01/cluster&#45;01/010_eks</title>
<path fill="none" stroke="black" d="M541,-143.83C541,-143.83 541,-118.41 541,-118.41"/>
<polygon fill="black" stroke="black" points="544.5,-118.41 541,-108.41 537.5,-118.41 544.5,-118.41"/>
</g>
<!-- sbx/eu&#45;west&#45;1/infra&#45;01/cluster&#45;01/030_engines -->
<g id="node5" class="node">
<title>sbx/eu&#45;west&#45;1/infra&#45;01/cluster&#45;01/030_engines</title>
<polygon fill="none" stroke="black" points="506,-252 160,-252 160,-216 506,-216 506,-252"/>
<text text-anchor="middle" x="333" y="-230.3" font-family="Times,serif" font-size="14.00">sbx/eu&#45;west&#45;1/infra&#45;01/cluster&#45;01/030_engines</text>
</g>
<!-- sbx/eu&#45;west&#45;1/infra&#45;01/cluster&#45;01/030_engines&#45;&gt;sbx/eu&#45;west&#45;1/infra&#45;01/cluster&#45;01/010_eks -->
<g id="edge3" class="edge">
<title>sbx/eu&#45;west&#45;1/infra&#45;01/cluster&#45;01/030_engines&#45;&gt;sbx/eu&#45;west&#45;1/infra&#45;01/cluster&#45;01/010_eks</title>
<path fill="none" stroke="black" d="M252.25,-215.76C252.25,-177.01 252.25,-90 252.25,-90 252.25,-90 373.95,-90 373.95,-90"/>
<polygon fill="black" stroke="black" points="373.95,-93.5 383.95,-90 373.95,-86.5 373.95,-93.5"/>
</g>
<!-- sbx/eu&#45;west&#45;1/infra&#45;01/cluster&#45;01/030_engines&#45;&gt;sbx/eu&#45;west&#45;1/infra&#45;01/cluster&#45;01/020_system_charts -->
<g id="edge4" class="edge">
<title>sbx/eu&#45;west&#45;1/infra&#45;01/cluster&#45;01/030_engines&#45;&gt;sbx/eu&#45;west&#45;1/infra&#45;01/cluster&#45;01/020_system_charts</title>
<path fill="none" stroke="black" d="M425.25,-215.83C425.25,-215.83 425.25,-190.41 425.25,-190.41"/>
<polygon fill="black" stroke="black" points="428.75,-190.41 425.25,-180.41 421.75,-190.41 428.75,-190.41"/>
</g>
<!-- sbx/eu&#45;west&#45;1/infra&#45;01/cluster&#45;01/040_observability -->
<g id="node6" class="node">
<title>sbx/eu&#45;west&#45;1/infra&#45;01/cluster&#45;01/040_observability</title>
<polygon fill="none" stroke="black" points="940.5,-252 557.5,-252 557.5,-216 940.5,-216 940.5,-252"/>
<text text-anchor="middle" x="749" y="-230.3" font-family="Times,serif" font-size="14.00">sbx/eu&#45;west&#45;1/infra&#45;01/cluster&#45;01/040_observability</text>
</g>
<!-- sbx/eu&#45;west&#45;1/infra&#45;01/cluster&#45;01/040_observability&#45;&gt;sbx/eu&#45;west&#45;1/infra&#45;01/cluster&#45;01/010_eks -->
<g id="edge5" class="edge">
<title>sbx/eu&#45;west&#45;1/infra&#45;01/cluster&#45;01/040_observability&#45;&gt;sbx/eu&#45;west&#45;1/infra&#45;01/cluster&#45;01/010_eks</title>
<path fill="none" stroke="black" d="M839,-215.76C839,-177.01 839,-90 839,-90 839,-90 708.29,-90 708.29,-90"/>
<polygon fill="black" stroke="black" points="708.29,-86.5 698.29,-90 708.29,-93.5 708.29,-86.5"/>
</g>
<!-- sbx/eu&#45;west&#45;1/infra&#45;01/cluster&#45;01/040_observability&#45;&gt;sbx/eu&#45;west&#45;1/infra&#45;01/cluster&#45;01/020_system_charts -->
<g id="edge6" class="edge">
<title>sbx/eu&#45;west&#45;1/infra&#45;01/cluster&#45;01/040_observability&#45;&gt;sbx/eu&#45;west&#45;1/infra&#45;01/cluster&#45;01/020_system_charts</title>
<path fill="none" stroke="black" d="M647.5,-215.83C647.5,-215.83 647.5,-190.41 647.5,-190.41"/>
<polygon fill="black" stroke="black" points="651,-190.41 647.5,-180.41 644,-190.41 651,-190.41"/>
</g>
</g>
</svg>
