<?xml version="1.0" encoding="UTF-8" standalone="no"?>
<!DOCTYPE svg PUBLIC "-//W3C//DTD SVG 1.1//EN"
 "http://www.w3.org/Graphics/SVG/1.1/DTD/svg11.dtd">
<!-- Generated by graphviz version 2.43.0 (0)
 -->
<!-- Title: %3 Pages: 1 -->
<svg width="1213pt" height="260pt"
 viewBox="0.00 0.00 1213.22 260.00" xmlns="http://www.w3.org/2000/svg" xmlns:xlink="http://www.w3.org/1999/xlink">
<g id="graph0" class="graph" transform="scale(1 1) rotate(0) translate(4 256)">
<title>%3</title>
<polygon fill="white" stroke="transparent" points="-4,4 -4,-256 1209.22,-256 1209.22,4 -4,4"/>
<!-- sbx/eu&#45;west&#45;1/ecr -->
<g id="node1" class="node">
<title>sbx/eu&#45;west&#45;1/ecr</title>
<ellipse fill="none" stroke="black" cx="92.29" cy="-234" rx="92.08" ry="18"/>
<text text-anchor="middle" x="92.29" y="-230.3" font-family="Times,serif" font-size="14.00">sbx/eu&#45;west&#45;1/ecr</text>
</g>
<!-- sbx/eu&#45;west&#45;1/infra&#45;01/cluster&#45;01/010_eks -->
<g id="node2" class="node">
<title>sbx/eu&#45;west&#45;1/infra&#45;01/cluster&#45;01/010_eks</title>
<ellipse fill="none" stroke="black" cx="691.29" cy="-90" rx="204.16" ry="18"/>
<text text-anchor="middle" x="691.29" y="-86.3" font-family="Times,serif" font-size="14.00">sbx/eu&#45;west&#45;1/infra&#45;01/cluster&#45;01/010_eks</text>
</g>
<!-- sbx/eu&#45;west&#45;1/infra&#45;01/vpc -->
<g id="node3" class="node">
<title>sbx/eu&#45;west&#45;1/infra&#45;01/vpc</title>
<ellipse fill="none" stroke="black" cx="691.29" cy="-18" rx="133.48" ry="18"/>
<text text-anchor="middle" x="691.29" y="-14.3" font-family="Times,serif" font-size="14.00">sbx/eu&#45;west&#45;1/infra&#45;01/vpc</text>
</g>
<!-- sbx/eu&#45;west&#45;1/infra&#45;01/cluster&#45;01/010_eks&#45;&gt;sbx/eu&#45;west&#45;1/infra&#45;01/vpc -->
<g id="edge1" class="edge">
<title>sbx/eu&#45;west&#45;1/infra&#45;01/cluster&#45;01/010_eks&#45;&gt;sbx/eu&#45;west&#45;1/infra&#45;01/vpc</title>
<path fill="none" stroke="black" d="M691.29,-71.7C691.29,-63.98 691.29,-54.71 691.29,-46.11"/>
<polygon fill="black" stroke="black" points="694.79,-46.1 691.29,-36.1 687.79,-46.1 694.79,-46.1"/>
</g>
<!-- sbx/eu&#45;west&#45;1/infra&#45;01/cluster&#45;01/020_system_charts -->
<g id="node4" class="node">
<title>sbx/eu&#45;west&#45;1/infra&#45;01/cluster&#45;01/020_system_charts</title>
<ellipse fill="none" stroke="black" cx="691.29" cy="-162" rx="255.35" ry="18"/>
<text text-anchor="middle" x="691.29" y="-158.3" font-family="Times,serif" font-size="14.00">sbx/eu&#45;west&#45;1/infra&#45;01/cluster&#45;01/020_system_charts</text>
</g>
<!-- sbx/eu&#45;west&#45;1/infra&#45;01/cluster&#45;01/020_system_charts&#45;&gt;sbx/eu&#45;west&#45;1/infra&#45;01/cluster&#45;01/010_eks -->
<g id="edge2" class="edge">
<title>sbx/eu&#45;west&#45;1/infra&#45;01/cluster&#45;01/020_system_charts&#45;&gt;sbx/eu&#45;west&#45;1/infra&#45;01/cluster&#45;01/010_eks</title>
<path fill="none" stroke="black" d="M691.29,-143.7C691.29,-135.98 691.29,-126.71 691.29,-118.11"/>
<polygon fill="black" stroke="black" points="694.79,-118.1 691.29,-108.1 687.79,-118.1 694.79,-118.1"/>
</g>
<!-- sbx/eu&#45;west&#45;1/infra&#45;01/cluster&#45;01/030_engines -->
<g id="node5" class="node">
<title>sbx/eu&#45;west&#45;1/infra&#45;01/cluster&#45;01/030_engines</title>
<ellipse fill="none" stroke="black" cx="427.29" cy="-234" rx="224.76" ry="18"/>
<text text-anchor="middle" x="427.29" y="-230.3" font-family="Times,serif" font-size="14.00">sbx/eu&#45;west&#45;1/infra&#45;01/cluster&#45;01/030_engines</text>
</g>
<!-- sbx/eu&#45;west&#45;1/infra&#45;01/cluster&#45;01/030_engines&#45;&gt;sbx/eu&#45;west&#45;1/infra&#45;01/cluster&#45;01/010_eks -->
<g id="edge3" class="edge">
<title>sbx/eu&#45;west&#45;1/infra&#45;01/cluster&#45;01/030_engines&#45;&gt;sbx/eu&#45;west&#45;1/infra&#45;01/cluster&#45;01/010_eks</title>
<path fill="none" stroke="black" d="M421.46,-215.8C415.98,-196.13 410.84,-164.08 427.29,-144 442.91,-124.93 490.47,-112.58 541,-104.64"/>
<polygon fill="black" stroke="black" points="541.77,-108.07 551.14,-103.12 540.73,-101.15 541.77,-108.07"/>
</g>
<!-- sbx/eu&#45;west&#45;1/infra&#45;01/cluster&#45;01/030_engines&#45;&gt;sbx/eu&#45;west&#45;1/infra&#45;01/cluster&#45;01/020_system_charts -->
<g id="edge4" class="edge">
<title>sbx/eu&#45;west&#45;1/infra&#45;01/cluster&#45;01/030_engines&#45;&gt;sbx/eu&#45;west&#45;1/infra&#45;01/cluster&#45;01/020_system_charts</title>
<path fill="none" stroke="black" d="M488.85,-216.68C527.84,-206.34 578.43,-192.93 619.28,-182.09"/>
<polygon fill="black" stroke="black" points="620.4,-185.42 629.17,-179.47 618.61,-178.65 620.4,-185.42"/>
</g>
<!-- sbx/eu&#45;west&#45;1/infra&#45;01/cluster&#45;01/040_observability -->
<g id="node6" class="node">
<title>sbx/eu&#45;west&#45;1/infra&#45;01/cluster&#45;01/040_observability</title>
<ellipse fill="none" stroke="black" cx="956.29" cy="-234" rx="248.86" ry="18"/>
<text text-anchor="middle" x="956.29" y="-230.3" font-family="Times,serif" font-size="14.00">sbx/eu&#45;west&#45;1/infra&#45;01/cluster&#45;01/040_observability</text>
</g>
<!-- sbx/eu&#45;west&#45;1/infra&#45;01/cluster&#45;01/040_observability&#45;&gt;sbx/eu&#45;west&#45;1/infra&#45;01/cluster&#45;01/010_eks -->
<g id="edge5" class="edge">
<title>sbx/eu&#45;west&#45;1/infra&#45;01/cluster&#45;01/040_observability&#45;&gt;sbx/eu&#45;west&#45;1/infra&#45;01/cluster&#45;01/010_eks</title>
<path fill="none" stroke="black" d="M961.89,-215.77C967.11,-196.07 971.86,-163.99 955.29,-144 939.53,-124.98 891.77,-112.63 841.13,-104.68"/>
<polygon fill="black" stroke="black" points="841.38,-101.18 830.97,-103.15 840.34,-108.1 841.38,-101.18"/>
</g>
<!-- sbx/eu&#45;west&#45;1/infra&#45;01/cluster&#45;01/040_observability&#45;&gt;sbx/eu&#45;west&#45;1/infra&#45;01/cluster&#45;01/020_system_charts -->
<g id="edge6" class="edge">
<title>sbx/eu&#45;west&#45;1/infra&#45;01/cluster&#45;01/040_observability&#45;&gt;sbx/eu&#45;west&#45;1/infra&#45;01/cluster&#45;01/020_system_charts</title>
<path fill="none" stroke="black" d="M893.83,-216.5C854.81,-206.19 804.42,-192.88 763.67,-182.12"/>
<polygon fill="black" stroke="black" points="764.36,-178.68 753.8,-179.51 762.57,-185.45 764.36,-178.68"/>
</g>
</g>
</svg>
